Coordinates
version=1
nRows=26
nColumns=24
inDegrees=yes

Units are S.I. units (second, meters, Newtons, ...)
Angles are in degrees.

endheader
time	pelvis_tilt	pelvis_list	pelvis_rotation	pelvis_tx	pelvis_ty	pelvis_tz	hip_flexion_r	hip_adduction_r	hip_rotation_r	knee_angle_r	ankle_angle_r	subtalar_angle_r	mtp_angle_r	hip_flexion_l	hip_adduction_l	hip_rotation_l	knee_angle_l	ankle_angle_l	subtalar_angle_l	mtp_angle_l	lumbar_extension	lumbar_bending	lumbar_rotation
      1.52033333	     -7.35470595	      4.24704215	     -0.51624822	      0.44686940	      0.89762319	      0.29027751	     21.99796972	     -7.48237908	     -8.42288440	    -68.45952124	      5.02657858	      6.24738727	      9.93793017	     18.82969499	      7.98937889	     -1.59131267	    -23.43126431	     10.94596874	     -4.67032326	      4.90024574	      2.35436099	     -7.14466593	      3.63155237
      1.52450000	     -7.24418579	      4.08099694	     -0.33269901	      0.45181178	      0.89899485	      0.29008264	     22.44604423	     -7.31600398	     -8.52890224	    -67.90366981	      5.47710215	      6.03662902	      9.89111809	     18.09385747	      7.89051934	     -1.29933147	    -22.90550697	     10.88974796	     -4.65381670	      4.90017435	      2.19706157	     -6.97879557	      3.34111677
      1.52866667	     -7.10411632	      3.92753960	     -0.15257326	      0.45680346	      0.90040165	      0.28984668	     22.84298552	     -7.18056776	     -8.64955910	    -67.28778306	      5.82849060	      5.84338252	      9.81154911	     17.29872717	      7.80959234	     -0.98829846	    -22.32252045	     10.84248173	     -4.73023839	      4.89793240	      2.05079220	     -6.80737467	      2.90775376
      1.53283333	     -6.97290985	      3.76273658	      0.04079556	      0.46174438	      0.90175746	      0.28961659	     23.23763891	     -7.02864864	     -8.77386768	    -66.62563660	      6.18684596	      5.62497348	      9.72986094	     16.53125388	      7.71006996	     -0.66805334	    -21.76722685	     10.77466434	     -4.78004920	      4.89457706	      1.88812060	     -6.63042930	      2.53940538
      1.53700000	     -6.84201213	      3.59514873	      0.23819733	      0.46667872	      0.90307792	      0.28937958	     23.61783389	     -6.87727793	     -8.90430331	    -65.91374606	      6.51079463	      5.39164468	      9.63490365	     15.76648692	      7.60248233	     -0.34211280	    -21.21143199	     10.70265453	     -4.83320810	      4.89052143	      1.73031226	     -6.45059538	      2.14917173
      1.54116667	     -6.70531797	      3.42713772	      0.44637353	      0.47158950	      0.90437305	      0.28912748	     23.97748885	     -6.73067692	     -9.04482827	    -65.15362078	      6.80509383	      5.13738609	      9.52697687	     15.00021816	      7.49016338	     -0.01120098	    -20.65506169	     10.61923170	     -4.89832889	      4.88542464	      1.56258207	     -6.26435159	      1.75681886
      1.54533333	     -6.57188376	      3.25403136	      0.65486640	      0.47648973	      0.90562558	      0.28887930	     24.32621987	     -6.57793580	     -9.18450047	    -64.34393101	      7.06122945	      4.86997211	      9.41530543	     14.24430555	      7.36456683	      0.31628227	    -20.10852677	     10.54118926	     -4.95531300	      4.88116946	      1.39954960	     -6.07370402	      1.37481361
      1.54950000	     -6.44522019	      3.07208235	      0.87298025	      0.48136200	      0.90682545	      0.28863801	     24.66489998	     -6.41466232	     -9.32943248	    -63.48247573	      7.30787859	      4.58667977	      9.31988971	     13.51326623	      7.22041991	      0.63890913	    -19.58970721	     10.44562559	     -4.98184755	      4.87749213	      1.23750105	     -5.89861458	      1.03791884
      1.55366667	     -6.32803055	      2.92858417	      1.09307214	      0.48623368	      0.90795214	      0.28835013	     25.01384926	     -6.30753306	     -9.47181776	    -62.60868278	      7.51357022	      4.28664795	      9.10552575	     12.77054752	      7.12396834	      1.00726278	    -19.01627712	     10.32489728	     -5.11885678	      4.87249095	      1.09366238	     -5.72308536	      0.49674023
      1.55783333	     -6.18854262	      2.74958567	      1.30159965	      0.49111747	      0.90908570	      0.28811553	     25.31060833	     -6.14986892	     -9.61443046	    -61.65598577	      7.65066472	      3.96179200	      8.97269633	     12.02658890	      6.96411353	      1.29316575	    -18.49198617	     10.27539371	     -5.12985252	      4.87185128	      0.93459408	     -5.51149867	      0.19634082
      1.56200000	     -6.08098638	      2.59606816	      1.53286153	      0.49594294	      0.91011198	      0.28785073	     25.63699630	     -6.02753884	     -9.75926636	    -60.68422465	      7.80622917	      3.61670899	      8.72246999	     11.32075588	      6.83660878	      1.63593783	    -17.95637948	     10.14455156	     -5.21621759	      4.87411735	      0.79514353	     -5.34688486	     -0.29936535
      1.56616667	     -5.95702897	      2.41134859	      1.75456932	      0.50079972	      0.91113007	      0.28762520	     25.91674532	     -5.86492688	     -9.91195764	    -59.64049082	      7.89983794	      3.27002749	      8.61776136	     10.61921819	      6.65231688	      1.89257404	    -17.47039234	     10.07724507	     -5.17788328	      4.87672439	      0.65484813	     -5.14187151	     -0.53703447
      1.57033333	     -5.85430272	      2.27792687	      1.97631164	      0.50563323	      0.91204204	      0.28737138	     26.22498295	     -5.76493015	    -10.04225982	    -58.59812650	      7.97054347	      2.87966853	      8.32935109	      9.91921579	      6.53028971	      2.21554706	    -16.93054334	      9.96948247	     -5.26851205	      4.88962582	      0.53698120	     -4.98597950	     -1.08778136
      1.57450000	     -5.73769708	      2.12196077	      2.18102744	      0.51046026	      0.91293556	      0.28717584	     26.49766223	     -5.62229701	    -10.15513410	    -57.49168062	      7.98051684	      2.47988575	      8.14647757	      9.22403987	      6.36339170	      2.46383978	    -16.43019341	      9.92282505	     -5.23787588	      4.90202916	      0.39219681	     -4.80261282	     -1.38895798
      1.57866667	     -5.64161164	      1.96286145	      2.40545994	      0.51528359	      0.91375333	      0.28696635	     26.76884646	     -5.48657297	    -10.28972442	    -56.34071392	      8.00546864	      2.09273792	      8.03393923	      8.56864923	      6.18540210	      2.69326803	    -15.95696147	      9.81886840	     -5.18151486	      4.91094758	      0.28260923	     -4.62232904	     -1.66572034
      1.58283333	     -5.54157320	      1.83937017	      2.60602345	      0.52011107	      0.91450412	      0.28677766	     27.03753985	     -5.37884584	    -10.38198726	    -55.17817557	      7.96003680	      1.64894758	      7.85490587	      7.88729871	      6.04253506	      2.93665542	    -15.44118845	      9.77688246	     -5.17954984	      4.93054585	      0.16887869	     -4.47174644	     -2.10284104
      1.58700000	     -5.45901788	      1.70203599	      2.82380567	      0.52492076	      0.91518938	      0.28659466	     27.29797130	     -5.26024661	    -10.49378174	    -53.96125068	      7.93955042	      1.24729211	      7.72737877	      7.25486576	      5.87462620	      3.14569613	    -14.97845595	      9.66190249	     -5.11396690	      4.94592261	      0.07177616	     -4.31965157	     -2.40403886
      1.59116667	     -5.37842276	      1.58280762	      3.02612742	      0.52974388	      0.91580869	      0.28643588	     27.55244425	     -5.15299555	    -10.57857748	    -52.72197365	      7.87785549	      0.82017797	      7.59815856	      6.61425818	      5.71951873	      3.34674766	    -14.49635393	      9.58269645	     -5.04952667	      4.96449333	     -0.01970873	     -4.17917388	     -2.74309462
      1.59533333	     -5.32575552	      1.49564560	      3.23139357	      0.53456586	      0.91631114	      0.28625755	     27.83225084	     -5.08932660	    -10.65971657	    -51.47775093	      7.81537525	      0.41075531	      7.09888024	      5.99623297	      5.60246307	      3.57674212	    -13.99979372	      9.50498975	     -5.06994206	      5.05578079	     -0.06118181	     -4.08188179	     -3.31809243
      1.59950000	     -5.24667290	      1.38417078	      3.41817073	      0.53938735	      0.91682468	      0.28615200	     28.05586447	     -4.97427018	    -10.70806521	    -50.16497049	      7.72945958	      0.01584275	      6.98873731	      5.37058328	      5.43762979	      3.72247667	    -13.54154436	      9.42518224	     -4.93293820	      5.07717993	     -0.16438601	     -3.95002208	     -3.47371999
      1.60366667	     -5.17620101	      1.29611344	      3.59775960	      0.54422158	      0.91725639	      0.28606274	     28.27996119	     -4.88212483	    -10.74204495	    -48.83761688	      7.61599868	     -0.40266332	      6.86509812	      4.74647788	      5.29467286	      3.86356428	    -13.07091777	      9.36409763	     -4.82708413	      5.10436640	     -0.24324162	     -3.85008835	     -3.76649392
      1.60783333	     -5.11608939	      1.21883404	      3.77540450	      0.54906180	      0.91761260	      0.28597778	     28.50116949	     -4.80093359	    -10.76601999	    -47.48685403	      7.49967725	     -0.79159839	      6.73182155	      4.13517450	      5.16079536	      4.00351787	    -12.60541304	      9.30276532	     -4.72571000	      5.13687836	     -0.30815631	     -3.76141087	     -4.08569449
      1.61200000	     -5.05701263	      1.16305710	      3.93899159	      0.55390440	      0.91789548	      0.28591855	     28.71749630	     -4.73406612	    -10.76142786	    -46.12736686	      7.37260757	     -1.17408894	      6.55258309	      3.51866689	      5.04682688	      4.14030243	    -12.13154798	      9.28051375	     -4.63720888	      5.18702900	     -0.37264708	     -3.69998921	     -4.43846696
      1.61616667	     -5.00667301	      1.10942502	      4.10567033	      0.55875133	      0.91812239	      0.28587401	     28.92037909	     -4.66857385	    -10.74929281	    -44.73109196	      7.26256223	     -1.49669263	      6.37715829	      2.92127531	      4.92945590	      4.26279375	    -11.67532478	      9.21115985	     -4.52486754	      5.24002265	     -0.42234124	     -3.64107884	     -4.73308279
      1.62033333	     -4.95631938	      1.06439212	      4.26498643	      0.56361452	      0.91828652	      0.28584966	     29.11135447	     -4.60812294	    -10.72590930	    -43.31991830	      7.14729358	     -1.79353384	      6.20981947	      2.32068610	      4.81673249	      4.37069517	    -11.21715612	      9.15032308	     -4.40786873	      5.29496192	     -0.47707831	     -3.59171388	     -5.01185819
      1.62450000	     -4.90986333	      1.02930317	      4.41587979	      0.56848847	      0.91838432	      0.28585272	     29.29323007	     -4.55211412	    -10.68321190	    -41.89237854	      7.03332786	     -2.06252889	      6.03125139	      1.71986379	      4.71057600	      4.47722661	    -10.75257533	      9.09402220	     -4.29527891	      5.35918670	     -0.53190651	     -3.55386812	     -5.29114253
